<svg width="535" height="479" viewBox="0 0 535 479" fill="none" xmlns="http://www.w3.org/2000/svg">
<g opacity="0.33">
<path d="M110.118 458.412H68.0083V458.746H110.118V458.412Z" fill="#E6E6E6"/>
<path d="M54.6837 458.412H30.2852V458.746H54.6837V458.412Z" fill="#E6E6E6"/>
<path d="M219.116 459.336H194.718V459.671H219.116V459.336Z" fill="#E6E6E6"/>
<path d="M346.334 464.804H291.421V465.139H346.334V464.804Z" fill="#E6E6E6"/>
<path d="M280.106 470.804H272.058V471.139H280.106V470.804Z" fill="#E6E6E6"/>
<path d="M527.816 463.336H408.71V463.671H527.816V463.336Z" fill="#E6E6E6"/>
<path d="M252.745 378.474H7.24708C5.32387 378.471 3.48058 377.664 2.12185 376.231C0.763122 374.798 -2.94934e-06 372.857 0 370.832V7.57483C0.016742 5.56205 0.787254 3.6375 2.14417 2.21921C3.50109 0.800923 5.33483 0.00344801 7.24708 0H252.745C254.671 0 256.517 0.805111 257.879 2.23822C259.24 3.67132 260.005 5.61503 260.005 7.64175V370.832C260.005 372.859 259.24 374.803 257.879 376.236C256.517 377.669 254.671 378.474 252.745 378.474ZM7.24708 0.267663C5.40817 0.271208 3.64572 1.04263 2.34661 2.41261C1.04749 3.78258 0.317851 5.63917 0.317854 7.57483V370.832C0.317851 372.768 1.04749 374.625 2.34661 375.995C3.64572 377.365 5.40817 378.136 7.24708 378.139H252.745C254.585 378.136 256.349 377.365 257.65 375.995C258.951 374.626 259.684 372.769 259.687 370.832V7.57483C259.684 5.63794 258.951 3.78138 257.65 2.41179C256.349 1.0422 254.585 0.271201 252.745 0.267663H7.24708Z" fill="#E6E6E6"/>
<path d="M527.766 378.474H282.255C280.331 378.471 278.486 377.664 277.125 376.232C275.764 374.8 274.998 372.858 274.995 370.832V7.57483C275.015 5.56083 275.789 3.63629 277.147 2.21837C278.506 0.800455 280.341 0.0034104 282.255 0H527.766C529.676 0.00696523 531.506 0.805996 532.86 2.22391C534.215 3.64182 534.983 5.56436 535 7.57483V370.832C535 372.854 534.239 374.794 532.883 376.226C531.527 377.659 529.687 378.467 527.766 378.474ZM282.255 0.267663C280.415 0.271201 278.651 1.0422 277.35 2.41179C276.049 3.78138 275.316 5.63794 275.313 7.57483V370.832C275.316 372.769 276.049 374.626 277.35 375.995C278.651 377.365 280.415 378.136 282.255 378.139H527.766C529.606 378.136 531.37 377.365 532.671 375.995C533.972 374.626 534.704 372.769 534.708 370.832V7.57483C534.704 5.63794 533.972 3.78138 532.671 2.41179C531.37 1.0422 529.606 0.271201 527.766 0.267663H282.255Z" fill="#E6E6E6"/>
<path d="M291.396 323.844H263.438V440.585H291.396V323.844Z" fill="#E0E0E0"/>
<path d="M286.082 440.585H291.396V424.686H280.513L286.082 440.585Z" fill="#FAFAFA"/>
<path d="M168.882 323.844H140.924V440.585H168.882V323.844Z" fill="#E0E0E0"/>
<path d="M291.396 323.844H164.254V430.829H291.396V323.844Z" fill="#FAFAFA"/>
<path d="M286.781 329.104V357.409H168.832V329.104H286.743H286.781ZM287.239 328.582H168.374V357.918H287.277V328.582H287.239Z" fill="#E0E0E0"/>
<path d="M169.556 440.585H164.254V424.686H175.125L169.556 440.585Z" fill="#FAFAFA"/>
<path d="M225.016 343.25C225.016 343.835 225.18 344.406 225.489 344.893C225.798 345.379 226.237 345.758 226.75 345.982C227.264 346.206 227.829 346.265 228.374 346.15C228.919 346.036 229.419 345.755 229.812 345.341C230.205 344.927 230.473 344.4 230.581 343.827C230.69 343.253 230.634 342.658 230.421 342.118C230.209 341.577 229.849 341.115 229.387 340.79C228.924 340.465 228.381 340.292 227.825 340.292C227.08 340.292 226.366 340.604 225.839 341.158C225.312 341.713 225.016 342.465 225.016 343.25Z" fill="#E6E6E6"/>
<path d="M286.781 363.177V391.482H168.832V363.177H286.743H286.781ZM287.239 362.668H168.374V392.004H287.277V362.682L287.239 362.668Z" fill="#E0E0E0"/>
<path d="M225.016 377.403C225.016 377.988 225.18 378.56 225.489 379.047C225.798 379.533 226.237 379.912 226.75 380.136C227.264 380.36 227.829 380.418 228.374 380.304C228.919 380.19 229.419 379.908 229.812 379.495C230.205 379.081 230.473 378.554 230.581 377.98C230.69 377.407 230.634 376.812 230.421 376.272C230.209 375.731 229.849 375.269 229.387 374.944C228.924 374.619 228.381 374.446 227.825 374.446C227.08 374.446 226.366 374.757 225.839 375.312C225.312 375.867 225.016 376.619 225.016 377.403Z" fill="#E6E6E6"/>
<path d="M286.781 397.264V425.583H168.832V397.264H286.743H286.781ZM287.239 396.742H168.374V426.091H287.277V396.742H287.239Z" fill="#E0E0E0"/>
<path d="M225.016 411.423C225.018 412.008 225.185 412.578 225.495 413.063C225.806 413.547 226.245 413.924 226.759 414.146C227.273 414.368 227.837 414.425 228.381 414.309C228.926 414.193 229.425 413.911 229.817 413.496C230.208 413.082 230.475 412.555 230.582 411.982C230.69 411.409 230.633 410.815 230.42 410.275C230.207 409.735 229.847 409.274 229.385 408.95C228.923 408.625 228.381 408.452 227.825 408.452C227.455 408.452 227.089 408.529 226.747 408.679C226.406 408.828 226.095 409.047 225.834 409.323C225.573 409.599 225.366 409.927 225.226 410.287C225.085 410.648 225.014 411.034 225.016 411.423Z" fill="#E6E6E6"/>
<path d="M151.807 256.045H123.849V440.598H151.807V256.045Z" fill="#E0E0E0"/>
<path d="M146.493 440.585H151.807V424.686H140.937L146.493 440.585Z" fill="#FAFAFA"/>
<path d="M47.3223 256.045H19.3638V440.598H47.3223V256.045Z" fill="#E0E0E0"/>
<path d="M151.807 256.045H42.6816V430.842H151.807V256.045Z" fill="#FAFAFA"/>
<path d="M147.103 260.97V300.544H47.3857V260.97H147.103ZM147.688 260.368H46.7754V301.12H147.662V260.382L147.688 260.368Z" fill="#E0E0E0"/>
<path d="M147.103 305.375V410.339H99.6029V305.375H147.103ZM147.688 304.76H99.0308V410.955H147.688V304.76Z" fill="#E0E0E0"/>
<path d="M94.8858 305.375V410.339H47.3857V305.375H94.8858ZM95.458 304.76H46.7754V410.955H95.4326V304.76H95.458Z" fill="#E0E0E0"/>
<path d="M47.9962 440.585H42.6816V424.686H53.565L47.9962 440.585Z" fill="#FAFAFA"/>
<path d="M94.4283 280.777C94.4257 281.366 94.5891 281.941 94.8977 282.432C95.2063 282.922 95.6463 283.305 96.1618 283.532C96.6773 283.759 97.2453 283.82 97.7936 283.706C98.342 283.593 98.8461 283.311 99.2421 282.896C99.6381 282.482 99.9082 281.952 100.018 281.375C100.128 280.799 100.073 280.201 99.8597 279.657C99.6464 279.113 99.2847 278.649 98.8202 278.321C98.3558 277.994 97.8096 277.82 97.2508 277.82C96.5044 277.82 95.7884 278.131 95.2594 278.685C94.7305 279.24 94.4316 279.992 94.4283 280.777Z" fill="#E6E6E6"/>
<path d="M104.498 355.361C104.498 355.949 104.663 356.524 104.974 357.013C105.285 357.502 105.726 357.883 106.243 358.107C106.759 358.332 107.328 358.39 107.875 358.274C108.423 358.158 108.926 357.874 109.32 357.457C109.715 357.04 109.983 356.51 110.09 355.933C110.197 355.355 110.14 354.758 109.924 354.215C109.709 353.672 109.345 353.209 108.879 352.884C108.413 352.56 107.866 352.388 107.307 352.39C106.937 352.39 106.571 352.467 106.229 352.617C105.887 352.766 105.577 352.985 105.316 353.261C105.055 353.537 104.848 353.865 104.708 354.225C104.567 354.586 104.496 354.972 104.498 355.361Z" fill="#E6E6E6"/>
<path d="M84.3716 355.362C84.3741 355.946 84.5411 356.517 84.8513 357.001C85.1616 357.486 85.6013 357.863 86.115 358.085C86.6286 358.306 87.1932 358.363 87.7374 358.247C88.2816 358.132 88.7811 357.849 89.1727 357.435C89.5644 357.021 89.8308 356.494 89.9382 355.92C90.0456 355.347 89.9892 354.753 89.7762 354.213C89.5631 353.674 89.203 353.213 88.7412 352.888C88.2794 352.564 87.7366 352.391 87.1814 352.391C86.8114 352.391 86.445 352.468 86.1032 352.617C85.7615 352.767 85.4512 352.986 85.1901 353.262C84.929 353.538 84.7223 353.865 84.5818 354.226C84.4414 354.586 84.3699 354.972 84.3716 355.362Z" fill="#E6E6E6"/>
<path d="M81.1925 204.587H69.4065C70.4926 210.606 71.1766 216.696 71.4535 222.815C71.4535 229.507 62.4773 256.045 75.2677 256.045C88.0582 256.045 79.082 229.574 79.082 222.815C79.3798 216.695 80.0851 210.604 81.1925 204.587Z" fill="#E0E0E0"/>
<path d="M36.3496 231.729V239.758C36.363 244.063 37.9935 248.187 40.8852 251.231C43.7769 254.275 47.6951 255.991 51.7846 256.005H59.4131C63.5026 255.991 67.4208 254.275 70.3125 251.231C73.2042 248.187 74.8347 244.063 74.8481 239.758V231.729H36.3496Z" fill="#F5F5F5"/>
<path d="M200.197 306.821C200.197 316.189 210.152 323.844 222.32 323.844H233.305C245.472 323.844 255.428 316.189 255.428 306.821H200.197Z" fill="#E0E0E0"/>
<path d="M491.276 293.09C484.613 298.818 475.408 309.297 466.992 324.045C461.372 333.868 457.99 344.12 456.502 357.744C456.502 342.353 456.591 325.825 456.642 310.22C458.333 306.205 462.198 296.944 464.97 289.637C474.213 265.24 477.684 259.231 485.987 238.193C497.086 210.088 508.453 176.818 505.198 179.481C498.561 184.901 473.133 235.021 470.386 242.194C462.901 261.338 458.273 281.585 456.668 302.217C456.668 287.496 456.769 274.113 456.82 263.727C456.998 229.855 457.545 218.921 457.812 215.548C458.842 213.835 460.05 211.841 460.762 210.771C466.737 201.67 469.039 193.935 474.658 180.364C482.643 161.159 489.508 127.046 487.5 128.759C479.134 135.932 472.548 151.323 463.877 170.956C455.206 190.589 457.685 201.871 455.968 218.626C455.612 221.919 455.333 234.338 455.129 251.535C452.892 233.201 448.67 221.129 440.978 210.155C431.519 196.651 422.365 187.537 415.652 182.773C408.939 178.009 427.247 211.172 435.994 225.599C443.788 238.5 450.972 249.863 455.066 261.064C454.85 284.391 454.748 313.914 454.748 341.363C452.739 328.863 449.459 315.386 445.085 304.961C439.821 292.434 431.735 273.216 425.289 266.699C423.751 265.133 432.028 302.512 437.342 312.442C442.657 322.372 446.56 331.754 449.904 337.388C450.679 338.726 453.273 343.772 454.748 346.689C454.748 380.241 454.926 409.844 455.206 419.922H456.579C456.49 417.325 456.464 400.248 456.502 377.658C459.821 365.399 467.398 351.4 473.654 338.633C480.469 324.808 497.938 287.402 491.276 293.09Z" fill="#E0E0E0"/>
<path d="M475.803 440.585H435.957L432.943 399.472H478.816L475.803 440.585Z" fill="#F0F0F0"/>
<path d="M481.779 404.264H429.969L428.494 390.385H483.266L481.779 404.264Z" fill="#F5F5F5"/>
<path d="M109.406 27.4355H38.1426V109.809H109.406V27.4355Z" fill="#E0E0E0"/>
<path d="M117.123 27.4355H43.5078V109.809H117.123V27.4355Z" fill="#F5F5F5"/>
<path d="M110.957 103.318V33.9263L49.6742 33.9263L49.6742 103.318H110.957Z" fill="white"/>
<path d="M96.0938 86.4816V50.7354H64.5244V86.4816H96.0938Z" fill="#F5F5F5"/>
<path d="M472.764 37.0312H406.562V113.556H472.764V37.0312Z" fill="#E0E0E0"/>
<path d="M479.935 37.0312H411.558V113.556H479.935V37.0312Z" fill="#F5F5F5"/>
<path d="M474.213 107.52V43.0669L417.292 43.0669V107.52H474.213Z" fill="white"/>
<path d="M445.747 93.9896C455.556 93.9896 463.508 85.619 463.508 75.2934C463.508 64.9677 455.556 56.5972 445.747 56.5972C435.937 56.5972 427.985 64.9677 427.985 75.2934C427.985 85.619 435.937 93.9896 445.747 93.9896Z" fill="#F5F5F5"/>
<path d="M183.44 76.5513H130.575V137.659H183.44V76.5513Z" fill="#E0E0E0"/>
<path d="M189.162 76.5513H134.554V137.659H189.162V76.5513Z" fill="#F5F5F5"/>
<path d="M184.584 132.841V81.3691H139.131V132.841H184.584Z" fill="white"/>
<path d="M161.864 94.083L149.43 116.754H174.299L161.864 94.083Z" fill="#F5F5F5"/>
</g>
<path d="M259.578 478.15C402.887 478.15 519.063 471.367 519.063 463C519.063 454.633 402.887 447.85 259.578 447.85C116.268 447.85 0.0927734 454.633 0.0927734 463C0.0927734 471.367 116.268 478.15 259.578 478.15Z" fill="#F5F5F5"/>
<path d="M392.405 124.662L379.129 119.309C379.129 119.309 361.61 151.254 356.591 152.873C349.766 155.068 335.633 161.171 327.256 162.242C326.118 163.58 324.258 167.742 324.432 169.254C335.687 173.015 360.419 168.023 365.719 164.088C377.777 155.162 392.405 124.662 392.405 124.662Z" fill="#E58A7B"/>
<path d="M396.486 117.395C398.962 126.535 385.552 144.924 385.552 144.924L367.98 135.074C367.98 135.074 371.273 127.512 375.288 119.817C381.725 107.384 393.663 106.969 396.486 117.395Z" fill="#407BFF"/>
<path opacity="0.2" d="M396.486 117.395C398.962 126.535 385.552 144.924 385.552 144.924L367.98 135.074C367.98 135.074 371.273 127.512 375.288 119.817C381.725 107.384 393.663 106.969 396.486 117.395Z" fill="black"/>
<path opacity="0.2" d="M374.953 139.009L381.872 142.89L383.09 121.651C379.062 124.742 376.225 134.057 374.953 139.009Z" fill="black"/>
<path d="M384.924 110.516C384.924 110.516 371.246 140.949 379.222 197.613H433.116C433.973 189.342 431.135 148.979 441.4 110.007C435.488 108.852 429.506 108.088 423.494 107.719C415.867 107.277 408.222 107.277 400.595 107.719C395.308 108.256 390.07 109.191 384.924 110.516Z" fill="#407BFF"/>
<path opacity="0.2" d="M384.924 110.516C384.924 110.516 371.246 140.949 379.222 197.613H433.116C433.973 189.342 431.135 148.979 441.4 110.007C435.488 108.852 429.506 108.088 423.494 107.719C415.867 107.277 408.222 107.277 400.595 107.719C395.308 108.256 390.07 109.191 384.924 110.516Z" fill="black"/>
<g style="mix-blend-mode:multiply">
<path d="M372.424 464.204C372.343 465.65 392.779 466.814 418.06 466.814C443.341 466.814 463.924 465.65 464.004 464.204C464.084 462.759 443.662 461.608 418.368 461.608C393.074 461.608 372.517 462.772 372.424 464.204Z" fill="#E8ECF1"/>
</g>
<path d="M408.398 426.227L398.839 429.927L407.073 451.198L416.632 447.498L408.398 426.227Z" fill="#E58A7B"/>
<path d="M451.023 453.913H440.945L437.251 430.586H447.329L451.023 453.913Z" fill="#E58A7B"/>
<path d="M440.249 452.749H451.571C451.767 452.749 451.957 452.819 452.107 452.947C452.256 453.074 452.356 453.251 452.387 453.444L453.846 462.398C453.877 462.622 453.859 462.851 453.794 463.068C453.728 463.285 453.617 463.485 453.467 463.656C453.317 463.826 453.132 463.962 452.925 464.054C452.718 464.146 452.494 464.193 452.267 464.191C448.319 464.124 446.419 463.883 441.44 463.883C438.375 463.883 432.072 464.205 427.816 464.205C423.56 464.205 423.279 460.029 425.032 459.641C432.902 457.941 435.953 455.626 438.576 453.378C439.039 452.971 439.633 452.748 440.249 452.749Z" fill="#263238"/>
<path d="M406.791 449.296L417.498 446.164C417.689 446.11 417.893 446.123 418.075 446.201C418.258 446.279 418.408 446.417 418.502 446.592L422.517 454.622C422.61 454.826 422.657 455.047 422.656 455.271C422.655 455.496 422.605 455.717 422.509 455.919C422.414 456.122 422.275 456.301 422.103 456.445C421.931 456.588 421.729 456.692 421.513 456.75C417.618 457.821 415.009 458.476 410.137 459.895C406.778 460.872 403.352 462.465 400.033 463.522C397.731 464.258 392.324 464.285 389.527 464.285C385.392 464.285 384.468 459.922 386.248 459.721C390.732 459.226 391.334 459.453 393.81 458.209C397.861 456.438 401.533 453.902 404.623 450.741C405.206 450.077 405.954 449.578 406.791 449.296Z" fill="#263238"/>
<path d="M328.942 162.188L317.86 157.544L313.297 169.83C317.839 170.521 322.459 170.521 327.001 169.83L328.942 162.188Z" fill="#E58A7B"/>
<path d="M309.617 157.223L309.322 165.387L313.297 169.803L317.861 157.517L309.617 157.223Z" fill="#E58A7B"/>
<path d="M409.71 428.033L400.121 431.735L404.368 442.734L413.956 439.032L409.71 428.033Z" fill="#CF6F64"/>
<path d="M447.329 430.586H437.251L439.165 442.618H449.243L447.329 430.586Z" fill="#CF6F64"/>
<path opacity="0.2" d="M377.509 182.289C377.71 184.712 377.938 187.188 378.232 189.73L418.301 176.722C424.558 174.867 429.997 170.935 433.718 165.574C433.879 162.001 434.08 158.24 434.387 154.319C434.521 152.418 434.682 150.464 434.856 148.484C435.03 146.503 435.271 144.308 435.525 142.194L377.509 182.289Z" fill="black"/>
<path d="M390.598 138.393L389.259 138.232C390.049 131.541 395.041 126.268 400.3 126.402V127.74C395.697 127.646 391.307 132.397 390.598 138.393Z" fill="white"/>
<path d="M397.731 150.746H397.503V149.407C402.107 149.581 406.43 144.777 407.139 138.794L408.478 138.955C407.768 145.499 402.937 150.746 397.731 150.746Z" fill="white"/>
<path d="M422.744 81.9294C420.857 89.3035 418.635 102.807 423.493 107.719C423.493 107.719 420.094 115.2 406.403 115.2C393.89 115.2 400.595 107.719 400.595 107.719C408.919 105.765 409.066 99.6888 407.969 93.9341L422.744 81.9294Z" fill="#E58A7B"/>
<path d="M416.722 86.8279L407.982 93.9343C408.253 95.2567 408.41 96.6 408.451 97.9492C411.007 100.492 416.133 94.0548 416.655 90.7625C416.92 89.4664 416.943 88.1323 416.722 86.8279Z" fill="#CF6F64"/>
<path d="M392.953 81.8359C393.561 82.8898 394.38 83.807 395.359 84.5301C396.338 85.2532 397.455 85.7666 398.641 86.0382C401.853 86.7475 403.459 83.7898 402.576 80.8188C401.786 78.1421 399.15 74.5421 395.884 75.1577C395.185 75.3018 394.53 75.6114 393.975 76.0606C393.419 76.5097 392.98 77.0854 392.693 77.7394C392.406 78.3933 392.28 79.1065 392.325 79.8193C392.37 80.532 392.586 81.2235 392.953 81.8359Z" fill="#CF6F64"/>
<path d="M398.267 58.2415C393.261 60.53 391.495 80.4173 397.785 83.3615C404.075 86.3058 407.742 53.892 398.267 58.2415Z" fill="#263238"/>
<path d="M424.27 70.8349C423.065 80.8187 422.931 86.6939 417.578 91.8062C415.919 93.5028 413.824 94.7079 411.523 95.2885C409.223 95.8691 406.806 95.8027 404.541 95.0965C402.276 94.3904 400.25 93.072 398.687 91.2869C397.124 89.5018 396.084 87.3195 395.683 84.9809C394.064 76.0142 396.299 61.1991 406.31 57.2243C408.413 56.2966 410.726 55.9483 413.009 56.2156C415.292 56.4829 417.463 57.356 419.295 58.7445C421.127 60.1329 422.554 61.9862 423.429 64.112C424.304 66.2379 424.594 68.5591 424.27 70.8349Z" fill="#E58A7B"/>
<path d="M407.822 63.4073C415.236 61.5203 420.683 60.2355 418.729 66.4051C416.146 74.6491 413.041 82.6254 417.203 82.9868C419.746 83.2143 430.988 78.4499 429.556 73.6186C428.311 69.4163 433.571 68.2654 434.508 66.1374C437.974 58.4288 428.057 59.4459 429.823 54.7618C431.59 50.0777 421.794 42.5297 416.44 46.2903C407.728 52.3662 392.779 52.2726 400.635 42.2754C406.269 35.1422 396.219 36.6009 396.219 36.6009C396.219 36.6009 402.294 40.201 392.07 45.7684C381.256 51.7105 391.173 67.6765 407.822 63.4073Z" fill="#263238"/>
<path d="M428.204 81.8359C426.741 83.9538 424.541 85.4517 422.035 86.0382C418.729 86.7475 417.458 83.7898 418.702 80.8188C419.813 78.1421 422.864 74.5421 426.023 75.1577C429.181 75.7733 429.904 79.2128 428.204 81.8359Z" fill="#E58A7B"/>
<path d="M379.222 197.613C379.222 197.613 370.175 278.581 369.466 309.308C368.743 341.267 400.127 440.985 400.127 440.985L416.186 434.293C416.186 434.293 397.45 343.181 400.127 311.798C402.964 277.577 414.687 197.667 414.687 197.667L379.222 197.613Z" fill="#407BFF"/>
<path opacity="0.2" d="M401.706 219.842C394.492 234.805 399.35 264.395 403.258 281.927C404.744 269.547 406.51 256.111 408.183 243.678C408.023 224.567 406.537 209.805 401.706 219.842Z" fill="black"/>
<path d="M415.477 428.993C415.557 428.993 417.377 434.106 417.377 434.106L398.855 441.895L395.938 436.461L415.477 428.993Z" fill="#407BFF"/>
<path d="M398.347 197.613C398.347 197.613 405.266 274.619 409.843 303.46C414.875 335.057 434.601 440.289 434.601 440.289H453.057C453.057 440.289 442.002 337.614 439.915 306.324C437.639 272.384 433.116 197.613 433.116 197.613H398.347Z" fill="#407BFF"/>
<path d="M453.338 435.484C453.418 435.484 453.953 440.637 453.953 440.637H433.665L432.219 434.721L453.338 435.484Z" fill="#407BFF"/>
<path opacity="0.2" d="M446.271 429.382C446.229 429.382 446.189 429.368 446.157 429.341C446.125 429.314 446.104 429.276 446.097 429.234C445.99 428.298 436.02 335.553 434.146 307.448C432.112 276.962 428.017 209.337 427.977 208.654C427.975 208.632 427.978 208.61 427.985 208.589C427.992 208.568 428.004 208.548 428.019 208.532C428.034 208.516 428.052 208.502 428.073 208.494C428.093 208.485 428.115 208.48 428.137 208.48C428.181 208.48 428.224 208.497 428.256 208.526C428.288 208.556 428.308 208.597 428.311 208.641C428.311 209.323 432.447 276.895 434.481 307.435C436.354 335.539 446.325 428.217 446.419 429.221C446.422 429.243 446.421 429.266 446.416 429.288C446.41 429.309 446.4 429.33 446.387 429.347C446.373 429.365 446.355 429.38 446.335 429.39C446.316 429.401 446.294 429.407 446.271 429.408V429.382Z" fill="black"/>
<path d="M408.959 73.6186C408.959 74.435 408.451 75.0908 407.915 75.0908C407.38 75.0908 406.992 74.435 407.045 73.6186C407.099 72.8023 407.554 72.1465 408.089 72.1465C408.625 72.1465 409.013 72.8156 408.959 73.6186Z" fill="#263238"/>
<path d="M399.779 73.6186C399.779 74.435 399.257 75.0908 398.735 75.0908C398.213 75.0908 397.811 74.435 397.851 73.6186C397.892 72.8023 398.373 72.1465 398.909 72.1465C399.444 72.1465 399.832 72.8156 399.779 73.6186Z" fill="#263238"/>
<path d="M402.669 74.0334C401.552 76.5263 400.112 78.8616 398.387 80.9793C399.725 82.3176 402.228 81.702 402.228 81.702L402.669 74.0334Z" fill="#DF5753"/>
<path d="M402.91 85.1148C402.879 85.1148 402.848 85.1086 402.82 85.0963C402.791 85.084 402.766 85.066 402.744 85.0435C402.723 85.0209 402.706 84.9942 402.696 84.9651C402.685 84.9359 402.681 84.9049 402.683 84.8739C402.686 84.8088 402.714 84.7475 402.762 84.7027C402.809 84.6578 402.872 84.6329 402.937 84.633C403.96 84.6401 404.973 84.4178 405.899 83.9824C406.825 83.547 407.642 82.9096 408.29 82.117C408.336 82.0765 408.396 82.0542 408.457 82.0542C408.519 82.0542 408.578 82.0765 408.625 82.117C408.668 82.1619 408.692 82.2219 408.692 82.2843C408.692 82.3467 408.668 82.4066 408.625 82.4516C407.931 83.2939 407.058 83.9704 406.069 84.4312C405.08 84.8921 404.001 85.1256 402.91 85.1148Z" fill="#263238"/>
<path d="M410.592 71.1562C410.528 71.1891 410.457 71.2062 410.385 71.2062C410.313 71.2062 410.242 71.1891 410.177 71.1562C409.677 70.8325 409.107 70.6312 408.514 70.5684C407.921 70.5056 407.322 70.5832 406.765 70.7948C406.71 70.822 406.651 70.838 406.59 70.8419C406.53 70.8458 406.469 70.8376 406.412 70.8176C406.354 70.7977 406.301 70.7664 406.256 70.7257C406.211 70.685 406.175 70.6357 406.149 70.5807C406.099 70.4616 406.098 70.3278 406.146 70.2078C406.193 70.0878 406.286 69.9911 406.403 69.9383C407.103 69.6526 407.861 69.5398 408.614 69.6097C409.366 69.6796 410.091 69.9301 410.726 70.3398C410.777 70.3747 410.821 70.4194 410.855 70.4714C410.889 70.5233 410.912 70.5815 410.923 70.6425C410.935 70.7035 410.934 70.7662 410.92 70.8268C410.907 70.8874 410.882 70.9448 410.846 70.9956C410.779 71.0723 410.691 71.128 410.592 71.1562Z" fill="#263238"/>
<path d="M396.232 68.4794C396.161 68.4622 396.096 68.4251 396.045 68.3724C396 68.3288 395.965 68.2767 395.941 68.2193C395.917 68.1618 395.904 68.1001 395.904 68.0378C395.904 67.9755 395.917 67.9138 395.941 67.8563C395.965 67.7989 396 67.7468 396.045 67.7032C396.558 67.1279 397.197 66.6788 397.912 66.391C398.627 66.1031 399.398 65.9843 400.167 66.0437C400.228 66.0532 400.287 66.0753 400.34 66.1085C400.393 66.1417 400.438 66.1854 400.473 66.2368C400.508 66.2882 400.533 66.3463 400.544 66.4075C400.556 66.4687 400.555 66.5316 400.542 66.5924C400.513 66.7163 400.44 66.8255 400.336 66.8995C400.233 66.9734 400.106 67.007 399.98 66.9939C399.371 66.9556 398.763 67.0562 398.199 67.2881C397.636 67.5199 397.132 67.877 396.727 68.3322C396.666 68.4 396.588 68.4495 396.501 68.4755C396.413 68.5015 396.32 68.5028 396.232 68.4794Z" fill="#263238"/>
<path d="M446.579 123.176L432.661 119.469C432.661 119.469 419.01 153.074 414.179 155.256C407.621 158.253 391.013 168.639 383.946 173.55C383.558 175.223 383.866 179.653 384.749 180.871C396.794 178.676 419.853 169.803 424.671 165.293C435.659 155.001 446.579 123.176 446.579 123.176Z" fill="#E58A7B"/>
<path d="M436.863 454.515C436.184 454.569 435.508 454.384 434.95 453.993C434.777 453.837 434.648 453.64 434.576 453.419C434.503 453.199 434.489 452.963 434.535 452.735C434.543 452.593 434.59 452.456 434.67 452.338C434.75 452.22 434.861 452.126 434.99 452.066C436.114 451.491 439.259 453.485 439.62 453.712C439.66 453.737 439.691 453.773 439.708 453.817C439.725 453.86 439.727 453.908 439.714 453.953C439.703 454 439.679 454.043 439.647 454.078C439.614 454.113 439.572 454.139 439.527 454.154C438.654 454.368 437.761 454.489 436.863 454.515ZM435.525 452.427C435.424 452.405 435.319 452.405 435.217 452.427C435.166 452.453 435.123 452.494 435.095 452.544C435.066 452.594 435.053 452.651 435.057 452.708C435.021 452.864 435.027 453.026 435.074 453.179C435.121 453.332 435.207 453.47 435.324 453.578C435.846 454.047 437.158 454.1 438.884 453.766C437.856 453.089 436.699 452.633 435.485 452.427H435.525Z" fill="#407BFF"/>
<path d="M439.459 454.154C439.425 454.165 439.387 454.165 439.352 454.154C438.349 453.592 436.462 451.383 436.743 450.259C436.785 450.081 436.885 449.922 437.028 449.808C437.172 449.694 437.349 449.631 437.532 449.63C437.712 449.606 437.894 449.621 438.068 449.674C438.241 449.728 438.401 449.817 438.536 449.938C439.647 450.888 439.714 453.806 439.714 453.953C439.72 453.997 439.712 454.042 439.69 454.081C439.668 454.119 439.634 454.15 439.593 454.167C439.548 454.176 439.502 454.172 439.459 454.154ZM437.666 450.072H437.572C437.265 450.072 437.224 450.246 437.211 450.313C437.05 450.969 438.241 452.641 439.232 453.431C439.227 452.3 438.877 451.198 438.228 450.273C438.073 450.137 437.872 450.065 437.666 450.072Z" fill="#407BFF"/>
<path d="M401.331 452.842C400.512 453.128 399.621 453.128 398.802 452.842C398.616 452.741 398.458 452.595 398.344 452.418C398.229 452.24 398.161 452.036 398.146 451.825C398.129 451.693 398.146 451.558 398.195 451.434C398.244 451.31 398.324 451.201 398.427 451.116C399.498 450.152 403.874 451.116 404.369 451.303C404.416 451.315 404.458 451.343 404.487 451.382C404.516 451.421 404.531 451.469 404.53 451.517C404.532 451.567 404.519 451.617 404.493 451.66C404.466 451.703 404.428 451.737 404.383 451.758C403.397 452.203 402.376 452.566 401.331 452.842ZM399.15 451.25C398.997 451.28 398.854 451.349 398.735 451.45C398.692 451.482 398.66 451.526 398.641 451.575C398.622 451.625 398.617 451.679 398.628 451.731C398.637 451.872 398.68 452.008 398.755 452.127C398.83 452.246 398.933 452.345 399.056 452.414C399.765 452.789 401.411 452.494 403.539 451.598C402.106 451.236 400.622 451.118 399.15 451.25Z" fill="#407BFF"/>
<path d="M404.342 451.758H404.235C402.897 451.517 400.22 449.978 400.14 448.827C400.14 448.56 400.261 448.185 400.903 447.971C401.12 447.894 401.35 447.861 401.58 447.875C401.81 447.888 402.035 447.948 402.241 448.051C403.687 448.76 404.449 451.33 404.49 451.45C404.499 451.491 404.498 451.533 404.486 451.573C404.474 451.613 404.453 451.649 404.423 451.678C404.403 451.711 404.375 451.738 404.342 451.758ZM401.171 448.372H401.037C400.622 448.52 400.622 448.694 400.622 448.747C400.622 449.443 402.562 450.714 403.914 451.143C403.603 450.068 402.944 449.126 402.041 448.466C401.772 448.329 401.462 448.296 401.171 448.372Z" fill="#407BFF"/>
<path d="M385.084 172.761L371.125 179.185L369.506 183.2L374.658 186.666C374.658 186.666 384.294 185.622 387.038 179.426L385.084 172.761Z" fill="#E58A7B"/>
<path d="M385.673 181.098C385.361 178.416 384.476 175.833 383.077 173.524L385.285 171.864C386.946 174.525 388.006 177.517 388.39 180.63L385.673 181.098Z" fill="#263238"/>
<path d="M388.055 174.661C388.35 175.125 388.495 175.669 388.47 176.218C388.445 176.768 388.252 177.296 387.916 177.732C387.58 178.167 387.118 178.489 386.593 178.652C386.068 178.816 385.505 178.814 384.981 178.647C384.457 178.479 383.998 178.154 383.665 177.716C383.332 177.279 383.143 176.749 383.122 176.199C383.101 175.65 383.249 175.107 383.548 174.645C383.846 174.183 384.28 173.824 384.789 173.617C385.361 173.326 386.025 173.272 386.637 173.467C387.248 173.663 387.758 174.092 388.055 174.661Z" fill="#263238"/>
<path d="M361.69 184.377L363.551 186.251L376.077 180.898L371.126 179.185L361.69 184.377Z" fill="#E58A7B"/>
<path opacity="0.2" d="M415.477 428.993C415.557 428.993 417.377 434.106 417.377 434.106L398.855 441.895L395.938 436.461L415.477 428.993Z" fill="black"/>
<path opacity="0.2" d="M453.338 435.484C453.418 435.484 453.953 440.637 453.953 440.637H433.665L432.219 434.721L453.338 435.484Z" fill="black"/>
<path d="M450.206 119.322C453.887 131.193 439.5 147.426 439.5 147.426L419.626 139.316C421.982 132.455 424.698 125.723 427.763 119.148C433.866 105.992 446.486 107.344 450.206 119.322Z" fill="#407BFF"/>
<path opacity="0.2" d="M450.206 119.322C453.887 131.193 439.5 147.426 439.5 147.426L419.626 139.316C421.982 132.455 424.698 125.723 427.763 119.148C433.866 105.992 446.486 107.344 450.206 119.322Z" fill="black"/>
<path d="M252.725 0.38623H244.173V1.76469H252.725V0.38623Z" fill="#407BFF"/>
<path d="M363.428 54.9445L362.393 77.9133L363.77 77.9754L364.805 55.0065L363.428 54.9445Z" fill="#407BFF"/>
<path d="M360.767 6.56934H202.846L188.152 335.419H346.072L360.767 6.56934Z" fill="#407BFF"/>
<path opacity="0.56" d="M356.056 11.0928H198.136L183.441 339.942H341.361L356.056 11.0928Z" fill="#FAFAFA"/>
<path opacity="0.07" d="M351.345 15.6028H193.425L178.717 344.452H336.637L351.345 15.6028Z" fill="#407BFF"/>
<path d="M333.372 159.03H198.577L197.453 184.19H332.248L333.372 159.03Z" fill="white"/>
<path d="M272.706 140.668H199.394L198.898 151.923H272.211L272.706 140.668Z" fill="#407BFF"/>
<path d="M330.334 226.935H195.539L194.415 252.096H329.21L330.334 226.935Z" fill="white"/>
<path opacity="0.47" d="M305.616 286.075H214.972L213.62 316.227H304.264L305.616 286.075Z" fill="#407BFF"/>
<path d="M299.553 320.912H208.909C208.87 320.922 208.828 320.922 208.789 320.912C208.775 320.873 208.775 320.83 208.789 320.791L210.127 290.626C210.127 290.605 210.131 290.585 210.139 290.566C210.148 290.547 210.16 290.53 210.175 290.516C210.19 290.503 210.208 290.492 210.227 290.486C210.247 290.479 210.267 290.476 210.288 290.478H300.931C300.948 290.47 300.966 290.466 300.985 290.466C301.003 290.466 301.022 290.47 301.038 290.478C301.048 290.495 301.053 290.513 301.053 290.532C301.053 290.551 301.048 290.569 301.038 290.585L299.727 320.818C299.711 320.849 299.686 320.875 299.654 320.892C299.623 320.909 299.588 320.915 299.553 320.912ZM209.07 320.59H299.392L300.731 290.746H210.408L209.07 320.59Z" fill="white"/>
<path d="M256.874 208.574H196.356L195.86 219.842H256.365L256.874 208.574Z" fill="#407BFF"/>
<path d="M303.889 77.754C303.543 85.0764 300.939 92.1122 296.434 97.8956C293.1 102.264 288.809 105.81 283.891 108.263C278.972 110.715 273.558 112.007 268.062 112.041C263.621 112.075 259.22 111.2 255.131 109.468C251.041 107.737 247.349 105.187 244.282 101.974C241.216 98.7623 238.839 94.9562 237.299 90.7908C235.759 86.6253 235.088 82.1886 235.327 77.754C235.798 68.5518 239.766 59.877 246.421 53.5036C253.075 47.1302 261.913 43.5398 271.127 43.4665C275.571 43.4251 279.977 44.2954 284.071 46.0238C288.166 47.7521 291.863 50.3018 294.933 53.5152C298.004 56.7286 300.383 60.5375 301.923 64.7065C303.463 68.8756 304.132 73.3162 303.889 77.754Z" fill="white"/>
<path d="M307.114 50.6397C307.027 52.5867 306.335 54.458 305.134 55.9929C304.245 57.1532 303.103 58.0951 301.795 58.7469C300.487 59.3986 299.047 59.7429 297.586 59.7536C296.17 59.7622 294.773 59.4239 293.518 58.7684C292.263 58.1128 291.187 57.1599 290.385 55.9929C289.324 54.4159 288.798 52.5388 288.887 50.6397C289.016 48.1965 290.072 45.8946 291.841 44.2036C293.609 42.5125 295.955 41.5596 298.402 41.5392C299.582 41.5284 300.752 41.7594 301.84 42.218C302.927 42.6766 303.91 43.353 304.726 44.2056C305.542 45.0582 306.175 46.069 306.586 47.1755C306.997 48.2821 307.177 49.461 307.114 50.6397Z" fill="#407BFF"/>
<path d="M213.098 171.61C213.033 172.688 212.563 173.702 211.78 174.447C210.998 175.192 209.962 175.613 208.882 175.624C208.36 175.631 207.843 175.53 207.362 175.328C206.881 175.127 206.446 174.828 206.085 174.452C205.724 174.076 205.444 173.629 205.262 173.14C205.08 172.651 205 172.13 205.028 171.61C205.086 170.529 205.555 169.511 206.338 168.765C207.122 168.019 208.161 167.6 209.243 167.595C209.764 167.59 210.281 167.693 210.761 167.895C211.241 168.097 211.675 168.395 212.036 168.771C212.397 169.147 212.677 169.593 212.86 170.081C213.042 170.569 213.123 171.089 213.098 171.61Z" fill="#263238"/>
<path d="M231.139 171.61C231.077 172.689 230.608 173.705 229.825 174.451C229.042 175.196 228.004 175.616 226.923 175.625C226.402 175.629 225.887 175.527 225.407 175.324C224.928 175.122 224.495 174.823 224.135 174.447C223.775 174.071 223.496 173.625 223.315 173.137C223.134 172.649 223.055 172.129 223.082 171.61C223.14 170.531 223.607 169.516 224.388 168.77C225.168 168.024 226.204 167.603 227.284 167.595C227.806 167.589 228.323 167.689 228.804 167.891C229.285 168.093 229.72 168.391 230.081 168.767C230.442 169.144 230.723 169.59 230.905 170.079C231.086 170.568 231.166 171.089 231.139 171.61Z" fill="#263238"/>
<path d="M249.192 171.61C249.131 172.689 248.661 173.705 247.878 174.451C247.095 175.196 246.058 175.616 244.977 175.625C244.456 175.629 243.939 175.527 243.459 175.324C242.979 175.122 242.545 174.824 242.184 174.448C241.823 174.072 241.543 173.626 241.36 173.138C241.178 172.65 241.097 172.13 241.122 171.61C241.183 170.53 241.653 169.514 242.436 168.769C243.219 168.023 244.257 167.603 245.338 167.595C245.86 167.589 246.377 167.689 246.858 167.891C247.339 168.093 247.774 168.391 248.135 168.767C248.496 169.144 248.776 169.59 248.958 170.079C249.14 170.568 249.22 171.089 249.192 171.61Z" fill="#263238"/>
<path d="M210.06 239.516C209.996 240.594 209.525 241.608 208.743 242.353C207.96 243.098 206.925 243.519 205.844 243.53C205.323 243.535 204.807 243.433 204.327 243.23C203.846 243.028 203.413 242.73 203.052 242.354C202.691 241.978 202.411 241.532 202.228 241.044C202.045 240.556 201.964 240.036 201.99 239.516C202.051 238.436 202.521 237.42 203.304 236.674C204.087 235.929 205.124 235.509 206.206 235.501C206.727 235.496 207.243 235.599 207.723 235.801C208.203 236.003 208.637 236.301 208.998 236.677C209.359 237.053 209.639 237.499 209.822 237.987C210.004 238.475 210.085 238.995 210.06 239.516Z" fill="#263238"/>
<path d="M228.1 239.516C228.039 240.593 227.572 241.607 226.791 242.352C226.011 243.097 224.977 243.519 223.898 243.53C223.377 243.537 222.859 243.436 222.378 243.234C221.897 243.033 221.463 242.734 221.101 242.358C220.74 241.982 220.46 241.535 220.278 241.046C220.096 240.557 220.016 240.036 220.044 239.516C220.105 238.436 220.575 237.42 221.358 236.675C222.141 235.929 223.178 235.509 224.26 235.501C224.78 235.496 225.296 235.598 225.775 235.801C226.255 236.003 226.688 236.302 227.048 236.678C227.407 237.054 227.687 237.5 227.868 237.988C228.049 238.476 228.128 238.996 228.1 239.516Z" fill="#263238"/>
<path d="M246.195 239.515C246.133 240.595 245.664 241.611 244.881 242.356C244.098 243.102 243.06 243.522 241.979 243.53C241.458 243.533 240.943 243.429 240.464 243.226C239.984 243.023 239.551 242.725 239.191 242.349C238.83 241.974 238.55 241.529 238.367 241.042C238.183 240.555 238.101 240.035 238.125 239.515C238.189 238.437 238.66 237.423 239.442 236.678C240.224 235.933 241.26 235.512 242.34 235.501C242.862 235.494 243.379 235.595 243.86 235.797C244.341 235.998 244.776 236.297 245.137 236.673C245.498 237.049 245.779 237.496 245.961 237.985C246.142 238.474 246.222 238.995 246.195 239.515Z" fill="#263238"/>
<path d="M264.208 239.516C264.144 240.594 263.673 241.608 262.891 242.353C262.109 243.098 261.073 243.519 259.993 243.53C259.472 243.533 258.957 243.429 258.477 243.226C257.998 243.023 257.565 242.725 257.204 242.35C256.844 241.974 256.564 241.529 256.38 241.042C256.197 240.555 256.115 240.036 256.138 239.516C256.203 238.437 256.673 237.423 257.456 236.678C258.238 235.933 259.274 235.512 260.354 235.501C260.875 235.496 261.391 235.599 261.872 235.801C262.352 236.003 262.786 236.301 263.146 236.677C263.507 237.053 263.788 237.499 263.97 237.987C264.153 238.475 264.234 238.995 264.208 239.516Z" fill="#263238"/>
<path d="M282.329 239.516C282.264 240.594 281.794 241.608 281.011 242.353C280.229 243.098 279.193 243.519 278.113 243.53C277.591 243.537 277.074 243.436 276.593 243.234C276.112 243.033 275.677 242.734 275.316 242.358C274.955 241.982 274.675 241.535 274.493 241.046C274.311 240.557 274.231 240.036 274.259 239.516C274.32 238.436 274.79 237.42 275.573 236.674C276.356 235.929 277.393 235.509 278.474 235.501C278.995 235.496 279.512 235.599 279.992 235.801C280.472 236.003 280.906 236.301 281.267 236.677C281.628 237.053 281.908 237.499 282.091 237.987C282.273 238.475 282.354 238.995 282.329 239.516Z" fill="#263238"/>
<path d="M279.59 75.9681C285.192 70.4904 285.489 61.7101 280.254 56.3569C275.019 51.0038 266.234 51.1048 260.633 56.5826C255.031 62.0604 254.734 70.8406 259.969 76.1938C265.204 81.5469 273.988 81.4459 279.59 75.9681Z" fill="#407BFF"/>
<path d="M296.435 97.8954C293.1 102.264 288.809 105.81 283.891 108.262C278.973 110.715 273.558 112.007 268.062 112.041C262.733 112.087 257.475 110.82 252.751 108.353C248.027 105.886 243.983 102.295 240.975 97.8954C247.479 91.418 257.771 87.189 269.173 87.189C280.576 87.189 290.506 91.418 296.435 97.8954Z" fill="#407BFF"/>
<path opacity="0.1" d="M279.59 75.9681C285.192 70.4904 285.489 61.7101 280.254 56.3569C275.019 51.0038 266.234 51.1048 260.633 56.5826C255.031 62.0604 254.734 70.8406 259.969 76.1938C265.204 81.5469 273.988 81.4459 279.59 75.9681Z" fill="white"/>
<path opacity="0.1" d="M296.435 97.8954C293.1 102.264 288.809 105.81 283.891 108.262C278.973 110.715 273.558 112.007 268.062 112.041C262.733 112.087 257.475 110.82 252.751 108.353C248.027 105.886 243.983 102.295 240.975 97.8954C247.479 91.418 257.771 87.189 269.173 87.189C280.576 87.189 290.506 91.418 296.435 97.8954Z" fill="white"/>
<path d="M99.5289 190.252C98.2575 193.036 96.9192 196.101 95.7549 199.072C94.5905 202.043 93.3994 205.108 92.3689 208.159C90.2649 214.172 88.6624 220.35 87.5778 226.628L87.2834 228.595C87.2553 228.932 87.287 229.272 87.377 229.599C87.6929 230.708 88.1903 231.757 88.8492 232.703C90.5679 235.154 92.5616 237.399 94.7913 239.395C97.1421 241.582 99.6081 243.641 102.179 245.565C104.748 247.545 107.452 249.472 110.115 251.293L107.612 255.99C101.253 253.219 95.2167 249.759 89.612 245.672C86.6219 243.491 83.9233 240.936 81.5822 238.07C80.1944 236.364 79.1123 234.431 78.3836 232.355C77.9599 231.059 77.7431 229.704 77.7412 228.341C77.7412 228.019 77.7412 227.551 77.7412 227.323V226.668L77.8751 225.329C78.6423 218.357 80.1084 211.479 82.2513 204.8C83.2952 201.507 84.406 198.229 85.6774 195.03C86.9488 191.831 88.2603 188.7 89.8797 185.448L99.5289 190.252Z" fill="#E58A7B"/>
<path d="M108.228 250.463L117.69 245.672L115.241 256.057C115.241 256.057 108.75 257.877 105.739 254.719L108.228 250.463Z" fill="#E58A7B"/>
<path d="M126.349 247.372L123.833 255.963L115.241 256.057L117.69 245.672L126.349 247.372Z" fill="#E58A7B"/>
<path d="M139.705 140.146C140.211 142.001 140.916 143.795 141.806 145.499C141.546 145.794 141.211 146.014 140.836 146.134C140.462 146.254 140.061 146.27 139.678 146.182L139.705 140.146Z" fill="#DF5753"/>
<path d="M139.424 140.226C139.978 140.226 140.428 139.537 140.428 138.687C140.428 137.837 139.978 137.148 139.424 137.148C138.87 137.148 138.42 137.837 138.42 138.687C138.42 139.537 138.87 140.226 139.424 140.226Z" fill="#263238"/>
<path d="M139.13 137.202L141.164 136.626C141.164 136.626 140.174 138.205 139.13 137.202Z" fill="#263238"/>
<path d="M113.568 149.969C114.786 156.192 116.004 167.608 111.641 171.77C111.641 171.77 113.354 178.087 124.93 178.087C137.657 178.087 131.006 171.77 131.006 171.77C124.06 170.111 124.234 164.958 125.452 160.114L113.568 149.969Z" fill="#E58A7B"/>
<path d="M110.182 135.783C110.825 146.182 110.878 150.598 116.124 155.938C124.034 163.968 136.667 160.917 139.143 150.585C141.378 141.217 139.96 125.799 129.775 121.664C127.539 120.743 125.106 120.408 122.705 120.689C120.303 120.971 118.013 121.861 116.052 123.275C114.09 124.688 112.522 126.579 111.495 128.768C110.468 130.956 110.016 133.371 110.182 135.783Z" fill="#E58A7B"/>
<path d="M111.212 124.086C105.993 125.987 99.0337 124.568 101.764 140.668C104.655 157.718 100.211 163.326 100.211 163.326C100.211 163.326 120.005 167.541 140.214 163.071C140.214 163.071 134.044 152.285 135.77 144.335C137.979 134.298 136.239 130.59 136.239 130.59C136.239 130.59 118.546 121.41 111.212 124.086Z" fill="#263238"/>
<path d="M133.294 141.203C133.3 143.181 133.866 145.116 134.927 146.784C136.346 148.952 138.019 148.122 138.434 145.821C138.808 143.8 138.527 140.226 136.721 138.835C134.914 137.443 133.321 138.808 133.294 141.203Z" fill="#E58A7B"/>
<path d="M106.676 125.839C105.177 121.624 112.323 115.133 127.446 117.81C142.569 120.486 143.225 133.08 143.225 133.08L140.174 129.44L140.308 133.267L124.77 136.252L106.676 125.839Z" fill="#263238"/>
<path d="M107.96 172.48C107.871 171.868 108.024 171.247 108.387 170.747C108.749 170.247 109.292 169.908 109.901 169.803C114.612 169.027 125.318 167.447 130.698 168.197C134.713 168.759 135.757 171.088 135.931 173.001C135.958 173.337 135.914 173.674 135.8 173.99C135.686 174.306 135.506 174.595 135.271 174.835C135.036 175.076 134.753 175.264 134.44 175.387C134.127 175.509 133.791 175.563 133.455 175.544L110.195 174.5C109.647 174.473 109.125 174.256 108.718 173.888C108.311 173.52 108.043 173.022 107.96 172.48Z" fill="#407BFF"/>
<path opacity="0.6" d="M107.96 172.48C107.871 171.868 108.024 171.247 108.387 170.747C108.749 170.247 109.292 169.908 109.901 169.803C114.612 169.027 125.318 167.447 130.698 168.197C134.713 168.759 135.757 171.088 135.931 173.001C135.958 173.337 135.914 173.674 135.8 173.99C135.686 174.306 135.506 174.595 135.271 174.835C135.036 175.076 134.753 175.264 134.44 175.387C134.127 175.509 133.791 175.563 133.455 175.544L110.195 174.5C109.647 174.473 109.125 174.256 108.718 173.888C108.311 173.52 108.043 173.022 107.96 172.48Z" fill="black"/>
<path d="M121.411 406.282L130.043 412.278L144.483 392.699L135.851 386.716L121.411 406.282Z" fill="#E58A7B"/>
<path d="M101.282 405.894L110.396 411.087L123.177 390.383L114.063 385.191L101.282 405.894Z" fill="#E58A7B"/>
<path d="M144.47 392.699L137.029 402.789L128.396 396.807L135.837 386.716L144.47 392.699Z" fill="#CF6F64"/>
<path d="M114.05 385.191L123.177 390.397L116.593 401.063L107.465 395.857L114.05 385.191Z" fill="#CF6F64"/>
<path d="M128.691 237.843C128.691 237.843 162.389 280.307 156.059 320.925C150.96 353.727 121.384 398.145 121.384 398.145L107.479 391.24C117.28 371.6 125.644 351.276 132.505 330.427C134.621 323.954 135.238 317.085 134.311 310.338C133.384 303.592 130.936 297.144 127.152 291.482C110.075 266.549 82.7199 281.391 101.122 237.843H128.691Z" fill="#407BFF"/>
<path opacity="0.6" d="M128.691 237.843C128.691 237.843 162.389 280.307 156.059 320.925C150.96 353.727 121.384 398.145 121.384 398.145L107.479 391.24C117.28 371.6 125.644 351.276 132.505 330.427C134.621 323.954 135.238 317.085 134.311 310.338C133.384 303.592 130.936 297.144 127.152 291.482C110.075 266.549 82.7199 281.391 101.122 237.843H128.691Z" fill="black"/>
<path opacity="0.4" d="M145.219 265.117L140.321 260.246C140.321 260.634 149.809 319.212 152.473 335.673C154.044 330.864 155.248 325.943 156.073 320.952C159.204 301.024 152.66 280.668 145.219 265.117Z" fill="black"/>
<path d="M143.733 237.843C143.733 237.843 184.311 291.214 185.462 323.213C186.412 349.98 141.298 401.839 141.298 401.839L128.182 393.354C128.182 393.354 154.587 356.524 161.238 326.439C158.669 296.621 104.333 237.843 104.333 237.843H143.733Z" fill="#407BFF"/>
<path opacity="0.6" d="M143.733 237.843C143.733 237.843 184.311 291.214 185.462 323.213C186.412 349.98 141.298 401.839 141.298 401.839L128.182 393.354C128.182 393.354 154.587 356.524 161.238 326.439C158.669 296.621 104.333 237.843 104.333 237.843H143.733Z" fill="black"/>
<path d="M93.5334 174.153C89.1973 175.183 85.0352 190.948 85.0352 190.948L101.992 202.271C101.992 202.271 107.639 189.797 105.659 184.337C103.611 178.649 98.9803 172.854 93.5334 174.153Z" fill="#407BFF"/>
<path opacity="0.2" d="M96.8525 184.31L95.6748 198.055L101.978 202.284C103.719 198.365 105.007 194.262 105.819 190.052L96.8525 184.31Z" fill="black"/>
<path d="M148.752 174.46C148.752 174.46 153.758 176.213 143.734 237.829H101.095C101.818 220.431 101.831 209.725 93.5337 174.152C99.504 172.922 105.556 172.126 111.641 171.77C118.088 171.308 124.56 171.308 131.006 171.77C139.331 172.533 148.752 174.46 148.752 174.46Z" fill="#407BFF"/>
<path d="M153.088 184.31C154.052 186.987 155.069 189.864 156.14 192.635C157.21 195.405 158.227 198.255 159.311 201.066L162.59 209.471L163.42 211.572L163.848 212.616L164.049 213.137C164.049 213.231 164.049 213.231 164.049 213.218C163.804 212.873 163.484 212.589 163.112 212.388C162.583 212.076 161.986 211.897 161.372 211.866C160.863 211.85 160.356 211.946 159.887 212.147C159.271 212.428 159.271 212.549 159.285 212.535C159.396 212.446 159.495 212.343 159.579 212.227C160.32 211.255 160.961 210.21 161.493 209.109C162.122 207.878 162.724 206.566 163.326 205.241C164.504 202.565 165.588 199.795 166.672 196.997C167.756 194.2 168.787 191.377 169.79 188.526L172.842 179.988L177.994 181.326C176.977 187.429 175.666 193.371 174.086 199.42C173.323 202.431 172.427 205.415 171.41 208.427C170.901 209.939 170.339 211.438 169.697 212.977C169.027 214.647 168.203 216.251 167.234 217.768C166.878 218.279 166.485 218.762 166.056 219.213C165.373 219.952 164.544 220.539 163.621 220.94C162.802 221.291 161.915 221.456 161.024 221.422C160.027 221.384 159.055 221.094 158.201 220.578C157.192 219.949 156.356 219.08 155.765 218.049C155.564 217.701 155.39 217.353 155.27 217.099L155.015 216.59L154.507 215.546L153.49 213.472C152.151 210.688 150.813 207.878 149.649 205.054C148.484 202.23 147.253 199.366 146.102 196.489C144.951 193.612 143.921 190.734 142.944 187.629L153.088 184.31Z" fill="#E58A7B"/>
<path d="M148.752 174.46C153.878 175.678 159.646 190.828 159.646 190.828L144.403 203.796C144.403 203.796 134.539 187.281 136.533 181.834C138.608 176.16 142.061 172.868 148.752 174.46Z" fill="#407BFF"/>
<path d="M175.264 175.197L180.617 170.727L184.338 176.521L181.594 181.353C181.594 181.353 177.232 185.368 173.377 183.32C172.765 181.945 172.619 180.408 172.959 178.942C173.3 177.476 174.109 176.161 175.264 175.197Z" fill="#E58A7B"/>
<path d="M190.28 170.74L189.878 172.199L181.407 173.617L180.577 170.727L190.28 170.74Z" fill="#E58A7B"/>
<path d="M142.342 402.522L127.058 392.645L129.802 387.881L146.972 398.44L142.342 402.522Z" fill="#407BFF"/>
<path d="M116.379 410.391C115.038 410.227 113.749 409.77 112.605 409.053C112.557 409.036 112.516 409.005 112.487 408.965C112.458 408.924 112.443 408.875 112.443 408.825C112.443 408.775 112.458 408.726 112.487 408.686C112.516 408.645 112.557 408.614 112.605 408.598C113.019 408.464 116.62 407.353 117.663 408.209C117.781 408.307 117.87 408.434 117.922 408.578C117.973 408.721 117.986 408.876 117.958 409.026C117.939 409.267 117.859 409.499 117.726 409.7C117.592 409.902 117.41 410.066 117.195 410.177C116.944 410.314 116.664 410.387 116.379 410.391ZM113.367 408.919C115.04 409.775 116.379 410.083 117.021 409.762C117.161 409.684 117.279 409.572 117.363 409.437C117.447 409.301 117.495 409.145 117.503 408.986C117.503 408.772 117.503 408.678 117.382 408.624C116.82 408.169 114.813 408.517 113.341 408.919H113.367Z" fill="#263238"/>
<path d="M112.698 409.146C112.628 409.145 112.56 409.117 112.511 409.066C112.491 409.029 112.48 408.988 112.48 408.946C112.48 408.904 112.491 408.862 112.511 408.825C112.511 408.705 113.381 405.801 114.746 405.145C114.92 405.065 115.11 405.024 115.301 405.024C115.493 405.024 115.682 405.065 115.857 405.145C116.045 405.204 116.207 405.325 116.319 405.487C116.43 405.65 116.484 405.845 116.472 406.042C116.379 407.246 113.929 408.905 112.805 409.187L112.698 409.146ZM115.295 405.493C115.164 405.497 115.037 405.529 114.92 405.586C114.09 405.988 113.407 407.554 113.073 408.504C114.251 408.009 115.87 406.697 115.924 405.961C115.924 405.841 115.923 405.694 115.616 405.56C115.516 405.506 115.407 405.47 115.295 405.453V405.493Z" fill="#263238"/>
<path d="M135.476 416.172C133.964 416.172 131.863 414.232 130.712 413.041C130.682 413 130.667 412.951 130.667 412.9C130.667 412.85 130.682 412.801 130.712 412.76C130.738 412.717 130.776 412.681 130.82 412.658C130.865 412.634 130.915 412.623 130.966 412.626C131.501 412.626 136.145 413.322 136.801 414.633C136.87 414.751 136.907 414.885 136.907 415.021C136.907 415.158 136.87 415.292 136.801 415.41C136.703 415.614 136.554 415.79 136.369 415.921C136.184 416.052 135.969 416.134 135.744 416.159L135.476 416.172ZM131.595 413.228C133.281 414.861 134.767 415.771 135.61 415.664C135.758 415.645 135.898 415.589 136.02 415.503C136.141 415.417 136.239 415.302 136.306 415.169C136.336 415.123 136.352 415.069 136.352 415.015C136.352 414.96 136.336 414.907 136.306 414.861C135.958 414.138 133.482 413.523 131.595 413.228Z" fill="#263238"/>
<path d="M131.742 413.161C131.442 413.17 131.141 413.147 130.846 413.094C130.804 413.088 130.765 413.071 130.733 413.046C130.7 413.02 130.674 412.986 130.658 412.947C130.638 412.908 130.628 412.864 130.628 412.82C130.628 412.776 130.638 412.732 130.658 412.693C130.739 412.599 132.545 410.418 134.258 410.27C134.743 410.233 135.224 410.387 135.597 410.699C136.119 411.154 136.092 411.555 135.958 411.81C135.623 412.72 133.308 413.161 131.742 413.161ZM131.394 412.666C132.893 412.746 135.289 412.251 135.597 411.595C135.597 411.595 135.704 411.381 135.356 411.087C135.217 410.966 135.056 410.876 134.881 410.821C134.706 410.765 134.521 410.747 134.339 410.766C133.185 411.088 132.157 411.756 131.394 412.679V412.666Z" fill="#263238"/>
<path d="M113.059 407.701L101.711 404.489C101.515 404.43 101.304 404.445 101.119 404.531C100.934 404.618 100.787 404.769 100.707 404.957L96.8792 413.563C96.7894 413.783 96.7472 414.02 96.7554 414.258C96.7636 414.496 96.8222 414.729 96.9271 414.943C97.032 415.157 97.181 415.346 97.3642 415.498C97.5474 415.649 97.7607 415.761 97.99 415.824C102.005 416.868 103.932 417.163 108.924 418.595C112.002 419.451 116.392 421.044 120.634 422.248C124.877 423.453 126.295 419.317 124.649 418.434C117.208 414.5 116.619 411.743 114.585 408.798C114.221 408.265 113.681 407.877 113.059 407.701Z" fill="#407BFF"/>
<path d="M131.019 411.475L121.33 404.783C121.166 404.664 120.963 404.608 120.761 404.628C120.559 404.648 120.371 404.741 120.233 404.89L113.809 411.796C113.652 411.975 113.535 412.184 113.466 412.411C113.397 412.639 113.377 412.878 113.407 413.113C113.438 413.349 113.518 413.575 113.642 413.777C113.767 413.979 113.933 414.152 114.13 414.285C117.543 416.574 119.309 417.497 123.578 420.455C126.255 422.275 131.434 426.317 135.048 428.833C138.661 431.349 141.351 427.896 140.066 426.531C134.312 420.388 133.054 416.534 132.103 413.041C131.938 412.407 131.554 411.852 131.019 411.475Z" fill="#407BFF"/>
<path d="M123.164 399.029L105.699 390.343L107.505 385.605L126.161 394.76L123.164 399.029Z" fill="#407BFF"/>
<path d="M100.453 235.327L98.9804 239.181C98.8331 239.475 99.1811 239.783 99.6763 239.783H143.948C144.336 239.783 144.657 239.596 144.684 239.355L145.058 235.527C145.058 235.273 144.751 235.046 144.336 235.046H101.148C101.018 235.033 100.887 235.052 100.766 235.101C100.645 235.15 100.538 235.228 100.453 235.327Z" fill="#407BFF"/>
<path opacity="0.4" d="M100.453 235.327L98.9804 239.181C98.8331 239.475 99.1811 239.783 99.6763 239.783H143.948C144.336 239.783 144.657 239.596 144.684 239.355L145.058 235.527C145.058 235.273 144.751 235.046 144.336 235.046H101.148C101.018 235.033 100.887 235.052 100.766 235.101C100.645 235.15 100.538 235.228 100.453 235.327Z" fill="white"/>
<path d="M107.425 240.158H106.261C106.033 240.158 105.859 240.038 105.873 239.89L106.422 234.925C106.422 234.791 106.636 234.671 106.863 234.671H108.027C108.255 234.671 108.429 234.791 108.416 234.925L107.867 239.89C107.853 240.038 107.653 240.158 107.425 240.158Z" fill="#407BFF"/>
<path d="M134.727 240.158H133.576C133.348 240.158 133.174 240.038 133.188 239.89L133.723 234.925C133.723 234.791 133.951 234.671 134.178 234.671H135.329C135.557 234.671 135.744 234.791 135.717 234.925L135.182 239.89C135.115 240.038 134.968 240.158 134.727 240.158Z" fill="#407BFF"/>
<g style="mix-blend-mode:multiply">
<path d="M106.408 466.801C126.209 466.801 142.261 465.638 142.261 464.204C142.261 462.771 126.209 461.608 106.408 461.608C86.6068 461.608 70.5547 462.771 70.5547 464.204C70.5547 465.638 86.6068 466.801 106.408 466.801Z" fill="#F5F5F5"/>
</g>
<path d="M128.249 460.537C121.906 458.69 114.866 456.322 110.611 453.846C110.49 453.765 110.356 453.725 110.236 453.658V424.938H123.07C124.044 424.881 124.96 424.453 125.629 423.743C126.299 423.033 126.672 422.093 126.672 421.117C126.672 420.141 126.299 419.202 125.629 418.492C124.96 417.782 124.044 417.354 123.07 417.297H110.303V286.383H102.594V417.297H89.8399C89.3192 417.266 88.7976 417.342 88.3072 417.52C87.8168 417.698 87.3681 417.974 86.9884 418.332C86.6088 418.69 86.3063 419.122 86.0995 419.601C85.8928 420.08 85.7862 420.596 85.7862 421.117C85.7862 421.639 85.8928 422.155 86.0995 422.634C86.3063 423.113 86.6088 423.545 86.9884 423.903C87.3681 424.261 87.8168 424.537 88.3072 424.715C88.7976 424.893 89.3192 424.969 89.8399 424.938H102.594V453.618C102.474 453.618 102.353 453.725 102.233 453.806C97.9099 456.322 90.924 458.69 84.5804 460.497C84.1519 460.627 83.7839 460.906 83.5431 461.283C83.3023 461.66 83.2046 462.111 83.2677 462.555C83.3308 462.998 83.5505 463.404 83.887 463.699C84.2236 463.994 84.6547 464.159 85.1023 464.164H127.727C128.155 464.135 128.56 463.96 128.874 463.668C129.189 463.377 129.394 462.986 129.455 462.562C129.516 462.137 129.429 461.705 129.21 461.336C128.991 460.968 128.652 460.686 128.249 460.537Z" fill="#E0E0E0"/>
<path d="M130.217 273.054H82.6263C78.7976 273.054 75.6938 276.157 75.6938 279.986V294.132C75.6938 297.961 78.7976 301.065 82.6263 301.065H130.217C134.045 301.065 137.149 297.961 137.149 294.132V279.986C137.149 276.157 134.045 273.054 130.217 273.054Z" fill="#407BFF"/>
<path d="M82.1846 301.078V303.514C82.1846 305.521 84.366 307.154 87.0426 307.154H125.854C128.53 307.154 130.712 305.521 130.712 303.514V301.078H82.1846Z" fill="#407BFF"/>
<path opacity="0.3" d="M82.1846 301.078V303.514C82.1846 305.521 84.366 307.154 87.0426 307.154H125.854C128.53 307.154 130.712 305.521 130.712 303.514V301.078H82.1846Z" fill="white"/>
</svg>
